<svg xmlns="http://www.w3.org/2000/svg" width="159" height="64" viewBox="-1.2 -1.2 160 72">
  <g id="Grupo_30548" data-name="Grupo 30548" transform="translate(-232.5,-159.5)">
    <g id="Grupo_30545" data-name="Grupo 30545" transform="translate(232.5,159.5)">
      <g id="Grupo_30543" data-name="Grupo 30543" transform="translate(26.9,24.3)">
        <path id="Trazado_53158" data-name="Trazado 53158" d="M 308.3 215.2 l -2.7 -5.6 l -4.6 6.3 H 290.4 l -4.4 7.3 l 3.5 4.7 l 3.8 -6.9 h 10.3 Z" transform="translate(-285.7,-208.5)" fill="#ffffff"/>
        <path id="Trazado_53159" data-name="Trazado 53159" d="M 293 207.4 H 285.4 l 4.4 5.7 h 9.8 l 4.4 -5.7 Z" transform="translate(-285.4,-207.4)" fill="#ffffff"/>
      </g>
      <path id="Trazado_53160" data-name="Trazado 53160" d="M 239.6 198.2 a 9.5 9.5 0 0 0 4.9 -1.4 H 246 c 0 0.5 0.1 1 0.1 1.5 l 0.1 0 a 28.6 28.6 0 0 1 5.2 -0.2 a 20.2 20.2 0 0 1 -0.1 -2.3 a 20.4 20.4 0 0 1 20.4 -20.4 c 0.4 0 0.8 0 1.2 0.1 v 0 c 0 0 0 0 0 0 q 0.8 0 1.6 0.2 c 0.1 0 0.2 0 0.3 0 c 0.5 0.1 1 0.2 1.5 0.3 c 0.1 0 0.2 0 0.3 0.1 a 20.3 20.3 0 0 1 4.3 1.6 c 0.1 0.1 0.2 0.1 0.3 0.1 c 0.4 0.2 0.7 0.4 1.1 0.6 c 0.2 0.1 0.3 0.2 0.5 0.3 c 0.3 0.2 0.7 0.4 1 0.7 q 0.2 0.2 0.5 0.3 q 0.5 0.4 1 0.8 c 0 0 0.1 0.1 0.1 0.1 l 0 0 a 20.8 20.8 0 0 1 1.6 1.5 l 0 0 c 0 0 0.1 0.1 0.1 0.1 c 0.3 0.4 0.6 0.7 0.9 1.1 c 0 0 0.1 0.1 0.1 0.1 a 20.3 20.3 0 0 1 3.4 17.9 c 1.5 -0.1 3.2 -0.1 5 -0.1 l 0.6 0 a 25.6 25.6 0 0 0 0.6 -4.6 h 1.5 a 9.5 9.5 0 0 0 4.9 1.4 c 2.2 0 3.9 -1.1 3.9 -2.5 s -1.8 -2.5 -3.9 -2.5 a 9.5 9.5 0 0 0 -4.9 1.4 H 297.5 a 25.7 25.7 0 0 0 -6.8 -16.3 l 1.1 -1.1 a 9.6 9.6 0 0 0 4.5 -2.5 c 1.5 -1.5 2 -3.6 1 -4.6 s -3 -0.5 -4.6 1 a 9.6 9.6 0 0 0 -2.5 4.5 l -1.1 1.1 a 25.7 25.7 0 0 0 -16.3 -6.7 v -1.6 a 9.5 9.5 0 0 0 1.4 -4.9 c 0 -2.2 -1.1 -3.9 -2.5 -3.9 s -2.5 1.8 -2.5 3.9 a 9.5 9.5 0 0 0 1.4 4.9 v 1.6 a 25.7 25.7 0 0 0 -16.3 6.7 l -1.1 -1.1 a 9.5 9.5 0 0 0 -2.5 -4.5 c -1.5 -1.5 -3.6 -2 -4.6 -1 s -0.5 3 1 4.6 a 9.6 9.6 0 0 0 4.5 2.5 l 1.1 1.1 a 25.7 25.7 0 0 0 -6.8 16.3 h -1.5 a 9.6 9.6 0 0 0 -4.9 -1.4 c -2.2 0 -3.9 1.1 -3.9 2.5 S 237.4 198.2 239.6 198.2 Z" transform="translate(-234,-159.5)" fill="#ffffff"/>
      <g id="Grupo_30544" data-name="Grupo 30544" transform="translate(0,42.5)">
        <path id="Trazado_53161" data-name="Trazado 53161" d="M 286 246.5 c -0.6 0 -1.1 0 -1.7 0 c -1.9 0 -3.6 0 -5 0.1 a 33.8 33.8 0 0 0 -12.1 3 a 88.8 88.8 0 0 1 -15.6 4.5 a 19.9 19.9 0 0 1 -3 0.3 a 26 26 0 0 1 -3.2 -0.2 c -3.4 -0.4 -8.2 -1.7 -6.8 -5.8 a 4.8 4.8 0 0 1 3 -3.1 a 10.9 10.9 0 0 1 4.6 -0.6 c 0.2 0 0.3 0 0.5 0 c 1.1 0.1 2.5 0.3 2.7 1.9 c 0 0 0.7 -2.7 -3.6 -3.3 a 18.1 18.1 0 0 0 -4.6 0.1 c -0.3 0 -0.7 0.1 -1.1 0.2 c -4.5 0.8 -9.6 3.5 -6.8 10 c 0 0 1.6 3.8 9.2 5.2 a 31.6 31.6 0 0 0 4.4 0.4 c 0.4 0 0.9 0 1.4 0 c 0.5 0 1 0 1.5 0 a 39.8 39.8 0 0 0 7.8 -1.2 c 7.3 -1.8 13.7 -5.1 19.3 -6.8 a 27.3 27.3 0 0 1 3 -0.7 q 1.6 -0.3 3.2 -0.5 a 41.7 41.7 0 0 1 20.5 2.7 S 297.1 246.8 286 246.5 Z" transform="translate(-232.5,-243.1)" fill="#ffffff"/>
        <path id="Trazado_53162" data-name="Trazado 53162" d="M 308.8 266.1 a 28.4 28.4 0 0 0 -21.3 -7.5 a 48.4 48.4 0 0 0 -14.6 3.3 l -12 4.7 s -15.6 6.8 -26.6 -1.3 c 0 0 8.1 10.8 27.9 4.7 c 17.6 -5.4 20.4 -9.8 31.4 -8.6 C 303.2 262.5 308.8 266.1 308.8 266.1 Z" transform="translate(-233.4,-250.7)" fill="#ffffff"/>
        <path id="Trazado_53163" data-name="Trazado 53163" d="M 331.3 269.9 s -1.7 -2.3 -8.5 -3.4 a 23.1 23.1 0 0 0 -11.7 1 s -14.5 6.1 -20 7.6 c 0 0 11.1 -0.3 20 -4.8 S 330.5 269.6 331.3 269.9 Z" transform="translate(-261.4,-254.5)" fill="#ffffff"/>
      </g>
    </g>
    <g id="Grupo_30547" data-name="Grupo 30547" transform="translate(311.6,173.9)">
      <path id="Trazado_53164" data-name="Trazado 53164" d="M 404.8 188.1 a 2.7 2.7 0 0 1 2.5 1 a 3.9 3.9 0 0 1 0.2 2.9 l -0.4 1.9 a 5.1 5.1 0 0 1 -1.5 2.9 a 4.5 4.5 0 0 1 -3 1 h -1.6 l -1.4 6.2 h -1.8 l 3.5 -15.9 Z m -1.9 8 a 2.4 2.4 0 0 0 1.6 -0.5 a 2.9 2.9 0 0 0 0.8 -1.6 l 0.5 -2.1 a 2.4 2.4 0 0 0 -0.1 -1.6 a 1.3 1.3 0 0 0 -1.3 -0.5 h -1.7 l -1.4 6.4 Z" transform="translate(-392.9,-187.9)" fill="#ffffff"/>
      <path id="Trazado_53165" data-name="Trazado 53165" d="M 416 200.8 l -1.3 3.2 H 413 l 6.6 -15.9 h 2.6 l -0.5 15.9 H 419.9 l 0.1 -3.2 Z m 0.6 -1.5 h 3.5 l 0.3 -9.2 Z" transform="translate(-400.4,-187.9)" fill="#ffffff"/>
      <path id="Trazado_53166" data-name="Trazado 53166" d="M 434.3 203.9 H 432.7 l 3.6 -15.9 h 2.3 l 1.1 11.5 l 2.6 -11.5 h 1.6 l -3.6 15.9 h -1.8 l -1.2 -12.8 Z" transform="translate(-410.1,-187.9)" fill="#ffffff"/>
      <path id="Trazado_53167" data-name="Trazado 53167" d="M 454.1 191.8 a 5.6 5.6 0 0 1 1.6 -2.9 a 4.2 4.2 0 0 1 3 -1.1 a 2.7 2.7 0 0 1 2.5 1.1 a 3.9 3.9 0 0 1 0.2 2.9 l -1.9 8.2 a 5.6 5.6 0 0 1 -1.6 2.9 a 4.2 4.2 0 0 1 -3 1.1 a 2.6 2.6 0 0 1 -2.5 -1.1 a 3.9 3.9 0 0 1 -0.2 -2.9 Z m -0.1 8.3 a 2.4 2.4 0 0 0 0.1 1.7 a 1.3 1.3 0 0 0 1.3 0.6 a 2.1 2.1 0 0 0 1.6 -0.6 a 3.4 3.4 0 0 0 0.8 -1.7 l 1.9 -8.4 a 2.5 2.5 0 0 0 -0.1 -1.7 a 1.3 1.3 0 0 0 -1.3 -0.6 a 2.1 2.1 0 0 0 -1.6 0.6 a 3.4 3.4 0 0 0 -0.9 1.7 Z" transform="translate(-419.6,-187.8)" fill="#ffffff"/>
      <path id="Trazado_53168" data-name="Trazado 53168" d="M 475.5 188.1 a 2.8 2.8 0 0 1 2.5 0.9 a 3.5 3.5 0 0 1 0.2 2.7 l -0.3 1.3 a 5.2 5.2 0 0 1 -1 2.1 a 3.4 3.4 0 0 1 -1.8 1.1 a 1.8 1.8 0 0 1 1.3 1.2 a 4.2 4.2 0 0 1 0 2.1 l -0.6 2.5 q -0.1 0.5 -0.2 1 a 2 2 0 0 0 0.1 0.9 h -1.8 a 2.5 2.5 0 0 1 -0.1 -0.7 a 7.8 7.8 0 0 1 0.2 -1.2 l 0.6 -2.5 q 0.3 -1.3 -0.2 -1.8 a 2.1 2.1 0 0 0 -1.6 -0.5 h -1.2 L 470.1 203.9 h -1.8 l 3.7 -15.9 Z m -2.2 7.5 a 3.2 3.2 0 0 0 1.8 -0.4 a 2.7 2.7 0 0 0 1 -1.7 l 0.4 -1.5 a 2.4 2.4 0 0 0 0 -1.6 q -0.3 -0.5 -1.3 -0.5 h -1.7 l -1.4 5.9 Z" transform="translate(-427.6,-187.9)" fill="#ffffff"/>
      <path id="Trazado_53169" data-name="Trazado 53169" d="M 488 200.8 l -1.4 3.2 h -1.6 l 6.7 -15.9 h 2.6 l -0.7 15.9 h -1.8 l 0.1 -3.2 Z m 0.6 -1.5 h 3.5 l 0.3 -9.2 Z" transform="translate(-435.8,-187.9)" fill="#ffffff"/>
      <path id="Trazado_53170" data-name="Trazado 53170" d="M 510.6 203.9 h -1.7 l 0.3 -12.6 l -3 12.6 h -1.5 l 3.7 -15.9 h 2.5 l -0.4 12.7 l 5.5 -12.7 H 518.5 l -3.7 15.9 h -1.7 l 3 -12.7 Z" transform="translate(-445.5,-187.9)" fill="#ffffff"/>
      <path id="Trazado_53171" data-name="Trazado 53171" d="M 530.2 200.8 l -1.4 3.2 h -1.6 l 6.8 -15.9 h 2.6 l -0.7 15.9 h -1.8 l 0.1 -3.2 Z m 0.6 -1.5 H 534.3 l 0.4 -9.2 Z" transform="translate(-456.6,-187.9)" fill="#ffffff"/>
      <g id="Grupo_30546" data-name="Grupo 30546" transform="translate(0,20.9)">
        <path id="Trazado_53172" data-name="Trazado 53172" d="M 394.9 235.4 l -0.3 1.4 h -3.4 l -1.2 4.9 h 4.1 L 393.8 243 H 388.2 l 3.3 -13.7 h 5.7 l -0.3 1.4 h -4.1 l -1.1 4.7 Z" transform="translate(-388.2,-229.1)" fill="#ffffff"/>
        <path id="Trazado_53173" data-name="Trazado 53173" d="M 408.7 229.3 l -0.7 12 l 5.1 -12 h 1.4 L 408.7 243 h -2.3 l 0.7 -13.7 Z" transform="translate(-397.2,-229.1)" fill="#ffffff"/>
        <path id="Trazado_53174" data-name="Trazado 53174" d="M 421.1 232.5 a 4.9 4.9 0 0 1 1.4 -2.5 a 3.7 3.7 0 0 1 2.6 -0.9 a 2.3 2.3 0 0 1 2.2 0.9 a 3.3 3.3 0 0 1 0.2 2.5 l -1.7 7.1 a 4.9 4.9 0 0 1 -1.4 2.5 a 3.7 3.7 0 0 1 -2.6 0.9 a 2.3 2.3 0 0 1 -2.1 -0.9 a 3.3 3.3 0 0 1 -0.2 -2.5 Z m -0.2 7.2 a 2.1 2.1 0 0 0 0 1.5 a 1.1 1.1 0 0 0 1.1 0.5 a 1.8 1.8 0 0 0 1.4 -0.5 a 3 3 0 0 0 0.8 -1.5 l 1.8 -7.3 a 2.1 2.1 0 0 0 0 -1.5 a 1.1 1.1 0 0 0 -1.1 -0.5 a 1.9 1.9 0 0 0 -1.4 0.5 a 3 3 0 0 0 -0.8 1.5 Z" transform="translate(-403.5,-229)" fill="#ffffff"/>
      </g>
    </g>
  </g>
</svg>
